<?xml version="1.0" encoding="utf-8"?>
<!-- Generator: Adobe Illustrator 25.0.0, SVG Export Plug-In . SVG Version: 6.00 Build 0)  -->
<svg version="1.1" id="Capa_1" xmlns="http://www.w3.org/2000/svg" xmlns:xlink="http://www.w3.org/1999/xlink" x="0px" y="0px"
	 viewBox="0 0 1024 391.1" style="enable-background:new 0 0 1024 391.1;" xml:space="preserve">
<style type="text/css">
	.st0{fill:#FFFFFF;}
</style>
<g>
	<g>
		<g>
			<path class="st0" d="M37.58,266.33V116.14h24.99v129.02h71.6v21.17L37.58,266.33L37.58,266.33z"/>
			<path class="st0" d="M212.98,266.33l58.54-150.18h26.34l56.97,150.18h-26.12l-50.2-138.03l9.46-0.9l-50.21,138.93H212.98z
				 M241.8,225.57l7.21-20.26h71.38l2.03,20.26H241.8z"/>
			<path class="st0" d="M645.52,266.33V116.14h24.99v150.18L645.52,266.33L645.52,266.33z M668.71,219.49l-5.18-22.07l67.32-81.28
				h31.52L668.71,219.49z M697.08,178.06l70.03,88.26h-32.42l-56.74-72.05L697.08,178.06z"/>
			<path class="st0" d="M844.56,266.33l58.54-150.18h26.34l56.97,150.18H960.3L910.09,128.3l9.46-0.9l-50.21,138.93H844.56z
				 M873.38,225.57l7.21-20.26h71.38l2.03,20.26H873.38z"/>
		</g>
		<g>
			<g>
				<path class="st0" d="M382.24,31.31c7.31,6.44,13.26,11.72,19.25,16.95c7.03,6.12,13.92,12.41,21.18,18.24
					c39.35,31.62,58.52,74.17,66.71,122.69c1.08,6.4,1.77,12.88,2.84,19.28c0.35,2.09,0.88,4.43,2.12,6.04
					c8.84,11.46,17.89,22.75,26.87,34.1c0.65-0.19,1.31-0.38,1.96-0.57c-0.53-4.49-0.92-9-1.62-13.46
					c-2.31-14.71-6.98-29.44-6.69-44.08c0.94-47.69,25.4-81.46,66.26-104.31c1.07-0.6,2.3-0.88,4.81-1.81
					c-8.5,18.96-10.54,37.88-10.45,57.24c0.03,6.44-1.18,12.93-2.31,19.31c-3.11,17.53-11.97,32.32-22.4,46.39
					c-4.37,5.9-8.55,12.02-12.12,18.42c-6.54,11.74-6.83,23.9-1.14,36.19c1.66,3.59,2.88,7.38,4.3,11.08
					c-0.47,0.45-0.93,0.91-1.4,1.36c-2.08-0.69-4.26-1.18-6.23-2.12c-10.62-5.07-19.36-12.32-25.25-22.65
					c-8.85-15.53-20.7-27.72-35.84-37.67c-23.25-15.27-44.75-32.88-59.51-57.23c-13.12-21.64-19.85-45.61-24.99-70.04
					c-2.8-13.33-4.4-26.92-6.29-40.43C381.82,40.69,382.24,37.02,382.24,31.31z M465.89,179.99c0.53-0.33,1.05-0.66,1.58-0.99
					c-17.11-31.02-34.23-62.04-51.34-93.06c-0.49,0.27-0.97,0.54-1.46,0.81C429.68,118.96,445.56,150.7,465.89,179.99z
					 M557.44,123.5c-13.46,19.71-22.76,42.36-26.1,65.69C539.81,167.87,548.85,145.11,557.44,123.5z"/>
			</g>
			<g>
				<path class="st0" d="M473.82,230.27c11.06,0.02,19.48,7.62,19.4,17.52c-0.07,9.37-8.2,16.75-18.64,16.93
					c-10.73,0.18-19.26-7.69-19.21-17.73C455.42,237.2,463.09,230.25,473.82,230.27z"/>
			</g>
		</g>
	</g>
	<g>
		<path class="st0" d="M170.68,359.74c-4.59,0-8.05-1.24-10.38-3.72c-2.34-2.48-3.51-6.27-3.51-11.35c0-5,1.15-8.76,3.46-11.28
			c2.31-2.53,5.78-3.79,10.43-3.79c1.55,0,3.09,0.19,4.62,0.57s3.02,0.91,4.45,1.58v4.34c-1.43-0.85-2.85-1.47-4.27-1.86
			c-1.42-0.39-2.81-0.59-4.18-0.59c-2.13,0-3.91,0.38-5.32,1.14c-1.42,0.76-2.47,1.94-3.15,3.55c-0.69,1.61-1.03,3.74-1.03,6.4
			c0,2.6,0.35,4.71,1.05,6.33s1.76,2.81,3.18,3.55s3.22,1.12,5.41,1.12c1.31,0,2.67-0.2,4.08-0.59c1.4-0.39,2.82-1,4.25-1.82v4.34
			c-0.88,0.44-1.83,0.82-2.85,1.14s-2.06,0.56-3.11,0.72S171.7,359.74,170.68,359.74z"/>
		<path class="st0" d="M191.58,359.31l11.39-29.22h5.13l11.08,29.22h-5.08l-9.77-26.86l1.84-0.17l-9.77,27.03H191.58z
			 M197.18,351.38l1.4-3.94h13.89l0.39,3.94H197.18z"/>
		<path class="st0" d="M232.15,359.31v-29.22h18.75v4.07h-13.93v8.72h12.18V347h-12.18v12.31H232.15z"/>
		<path class="st0" d="M265.1,359.31v-29.22h19.15v4.07h-14.28v8.46h12.44v4.12h-12.49v8.5h14.33v4.08L265.1,359.31L265.1,359.31z"
			/>
		<path class="st0" d="M306.46,359.31v-25.15H297v-4.07h23.75v4.07h-9.46v25.15H306.46z"/>
		<path class="st0" d="M333.89,359.31v-29.22h19.15v4.07h-14.28v8.46h12.44v4.12h-12.49v8.5h14.33v4.08L333.89,359.31L333.89,359.31
			z"/>
		<path class="st0" d="M368.33,359.31v-29.22h12.97c3.04,0,5.37,0.74,6.99,2.21c1.62,1.48,2.43,3.67,2.43,6.59
			c0,1.52-0.31,2.92-0.92,4.21c-0.61,1.29-1.51,2.34-2.67,3.15c-1.17,0.82-2.56,1.29-4.16,1.4l0.53-1.49l8.68,13.14h-6l-8.11-13.1
			l2.23,2.06h-7.14v11.04h-4.83V359.31z M373.15,344.32h6.79c1.93,0,3.37-0.42,4.32-1.27c0.95-0.85,1.42-2.13,1.42-3.86
			c0-1.61-0.37-2.85-1.12-3.72c-0.74-0.88-2.02-1.31-3.83-1.31h-7.58L373.15,344.32L373.15,344.32z"/>
		<path class="st0" d="M406.23,359.31v-29.22h4.86v29.22H406.23z M407.59,327.45l2.1-5h4.78l-4.29,5H407.59z"/>
		<path class="st0" d="M424.06,359.31l11.39-29.22h5.13l11.08,29.22h-5.08l-9.77-26.86l1.84-0.17l-9.77,27.03H424.06z
			 M429.67,351.38l1.4-3.94h13.89l0.39,3.94H429.67z"/>
		<path class="st0" d="M494.08,359.31v-13.1l-11-16.12H489l8.85,13.8l-1.97-0.18l8.41-13.63h5.21l-11.35,17.31l0.74-2.72v14.63
			h-4.81V359.31z"/>
		<path class="st0" d="M548.58,348.84v10.47h-4.82v-29.22h11.57c3.33,0,5.91,0.77,7.73,2.32c1.83,1.55,2.74,3.86,2.74,6.92
			c0,3.07-0.91,5.42-2.74,7.05c-1.83,1.64-4.4,2.45-7.73,2.45L548.58,348.84L548.58,348.84z M548.58,344.72h6.13
			c1.26,0,2.28-0.14,3.07-0.42s1.4-0.67,1.84-1.18s0.74-1.07,0.9-1.69c0.16-0.61,0.24-1.26,0.24-1.93s-0.08-1.33-0.24-1.97
			s-0.46-1.22-0.9-1.73s-1.05-0.91-1.84-1.2c-0.79-0.29-1.81-0.44-3.07-0.44h-6.13V344.72z"/>
		<path class="st0" d="M574.35,359.31l11.39-29.22h5.13l11.09,29.22h-5.08l-9.77-26.86l1.84-0.17l-9.77,27.03H574.35z
			 M579.96,351.38l1.4-3.94h13.89l0.4,3.94H579.96z"/>
		<path class="st0" d="M623.86,359.79c-1.46,0-2.75-0.08-3.86-0.24s-2.12-0.42-3.02-0.77c-0.91-0.35-1.84-0.77-2.81-1.27v-4.82
			c1.14,0.91,2.52,1.65,4.14,2.24s3.37,0.88,5.24,0.88c1.81,0,3.16-0.37,4.05-1.12c0.89-0.74,1.34-1.77,1.34-3.09
			c0-1.02-0.33-1.85-0.99-2.47c-0.66-0.63-1.53-1.16-2.61-1.6c-1.08-0.44-2.23-0.88-3.46-1.32c-0.94-0.35-1.86-0.72-2.76-1.12
			c-0.91-0.39-1.72-0.89-2.45-1.49c-0.73-0.6-1.31-1.36-1.75-2.3c-0.44-0.93-0.66-2.09-0.66-3.46c0-0.96,0.19-1.94,0.57-2.94
			c0.38-0.99,0.96-1.89,1.73-2.69s1.8-1.45,3.07-1.93c1.27-0.48,2.8-0.72,4.58-0.72c1.17,0,2.18,0.07,3.04,0.22s1.68,0.37,2.45,0.68
			s1.61,0.68,2.52,1.12v4.73c-0.73-0.47-1.47-0.91-2.21-1.31c-0.75-0.41-1.56-0.74-2.43-1.01c-0.88-0.26-1.86-0.41-2.94-0.44
			c-1.23-0.03-2.24,0.12-3.02,0.44c-0.79,0.32-1.39,0.77-1.8,1.36c-0.41,0.58-0.61,1.26-0.61,2.02c0,1.02,0.26,1.83,0.77,2.43
			s1.23,1.1,2.17,1.49c0.93,0.39,2.02,0.78,3.24,1.16c1.08,0.35,2.13,0.74,3.15,1.18s1.93,0.97,2.72,1.6s1.42,1.41,1.91,2.34
			c0.48,0.94,0.72,2.09,0.72,3.46c0,1.52-0.34,2.94-1.03,4.27s-1.77,2.41-3.24,3.24C628.15,359.37,626.23,359.79,623.86,359.79z"/>
		<path class="st0" d="M655.32,359.31v-25.15h-9.46v-4.07h23.75v4.07h-9.46v25.15H655.32z"/>
		<path class="st0" d="M682.75,359.31v-29.22h19.15v4.07h-14.28v8.46h12.44v4.12h-12.49v8.5h14.33v4.08L682.75,359.31L682.75,359.31
			z"/>
		<path class="st0" d="M717.19,359.31v-29.22h4.86v25.11h13.93v4.12h-18.79V359.31z"/>
		<path class="st0" d="M749.44,359.31v-29.22h19.15v4.07H754.3v8.46h12.44v4.12h-12.49v8.5h14.33v4.08L749.44,359.31L749.44,359.31z
			"/>
		<path class="st0" d="M783.87,359.31v-29.22h12.97c3.04,0,5.37,0.74,6.99,2.21c1.62,1.48,2.43,3.67,2.43,6.59
			c0,1.52-0.31,2.92-0.92,4.21c-0.61,1.29-1.5,2.34-2.67,3.15c-1.17,0.82-2.56,1.29-4.16,1.4l0.53-1.49l8.68,13.14h-6l-8.11-13.1
			l2.23,2.06h-7.14v11.04h-4.83V359.31z M788.69,344.32h6.79c1.93,0,3.37-0.42,4.32-1.27c0.95-0.85,1.42-2.13,1.42-3.86
			c0-1.61-0.37-2.85-1.12-3.72c-0.74-0.88-2.02-1.31-3.83-1.31h-7.58L788.69,344.32L788.69,344.32z"/>
		<path class="st0" d="M821.78,359.31v-29.22h4.86v29.22H821.78z M823.13,327.45l2.1-5h4.78l-4.29,5H823.13z"/>
		<path class="st0" d="M839.61,359.31L851,330.08h5.13l11.09,29.22h-5.08l-9.77-26.86l1.84-0.17l-9.77,27.03h-4.83V359.31z
			 M845.22,351.38l1.4-3.94h13.89l0.4,3.94H845.22z"/>
	</g>
</g>
</svg>
